Coordinates
version=1
nRows=8
nColumns=63
inDegrees=yes

Units are S.I. units (second, meters, Newtons, ...)
If the header above contains a line with 'inDegrees', this indicates whether rotational values are in degrees (yes) or radians (no).

endheader
time	pelvis_tilt	pelvis_list	pelvis_rotation	pelvis_tx	pelvis_ty	pelvis_tz	hip_flexion_r	hip_adduction_r	hip_rotation_r	knee_angle_r	knee_angle_r_beta	ankle_angle_r	subtalar_angle_r	mtp_angle_r	hip_flexion_l	hip_adduction_l	hip_rotation_l	knee_angle_l	knee_angle_l_beta	ankle_angle_l	subtalar_angle_l	mtp_angle_l	L5_S1_Flex_Ext	L5_S1_Lat_Bending	L5_S1_axial_rotation	L4_L5_Flex_Ext	L4_L5_Lat_Bending	L4_L5_axial_rotation	L3_L4_Flex_Ext	L3_L4_Lat_Bending	L3_L4_axial_rotation	L2_L3_Flex_Ext	L2_L3_Lat_Bending	L2_L3_axial_rotation	L1_L2_Flex_Ext	L1_L2_Lat_Bending	L1_L2_axial_rotation	L1_T12_Flex_Ext	L1_T12_Lat_Bending	L1_T12_axial_rotation	Abs_r3	Abs_r2	Abs_r1	Abs_t1	Abs_t2	neck_flexion	neck_bending	neck_rotation	arm_flex_r	arm_add_r	arm_rot_r	elbow_flex_r	pro_sup_r	wrist_flex_r	wrist_dev_r	arm_flex_l	arm_add_l	arm_rot_l	elbow_flex_l	pro_sup_l	wrist_flex_l	wrist_dev_l
      2.88135593	     -1.54985764	     -0.31815852	     95.75552010	      0.30069709	      0.77038883	      0.87881023	     -5.10042364	      1.36938749	     -4.60578643	      2.33417673	      0.04073907	     14.28829577	      9.83135300	      0.00000000	     -3.96615098	     -0.97816364	    -16.14284134	      6.49758362	      0.11340423	     17.57079241	     12.82326358	      0.00000000	     -0.23032696	     -0.55372487	     -0.84814332	     -0.42774020	     -0.73645408	     -0.90115228	     -0.37840416	     -1.34632665	     -0.90115228	     -0.26324068	     -1.34632665	     -0.74212540	     -0.21388161	     -1.12915575	     -0.68911645	     -0.13160882	     -0.85771982	     -0.63610749	     -1.64520244	     -6.26384647	     -4.71711870	      0.00000000	      0.00000000	     11.13425802	      6.35068182	     -8.98168880	     30.42973236	    -28.10464197	      9.01144251	    139.62346110	     88.93456600	     -5.97099234	     11.31197087	    -12.82446447	    -16.51413919	     22.27200508	     32.30963907	     87.54791000	    -14.10933351	      2.26609089
      2.89830508	     -1.53840351	     -0.33491659	     95.56550336	      0.30052746	      0.77090361	      0.87883006	     -5.07368677	      1.36718380	     -3.01205282	      2.20502295	      0.03848491	     14.14239748	      8.16179980	      0.00000000	     -3.98666641	     -0.96486723	    -16.63826712	      6.47189817	      0.11295593	     17.55586029	     13.30085354	      0.00000000	     -0.22740959	     -0.54917549	     -0.75273585	     -0.42232234	     -0.73040341	     -0.79978184	     -0.37361121	     -1.33526529	     -0.79978184	     -0.25990642	     -1.33526529	     -0.65864387	     -0.21117254	     -1.11987866	     -0.61159788	     -0.12994184	     -0.85067284	     -0.56455189	     -1.62436393	     -6.21238301	     -4.18649096	      0.00000000	      0.00000000	     11.25107853	      6.18450962	     -9.19213622	     29.27456001	    -28.46706760	      7.57479080	    141.13015291	     89.02342972	     -5.18495454	      9.83442948	    -11.83164077	    -17.05694185	     25.74449060	     31.45390190	     87.11685890	    -14.79721776	      2.08319276
      2.91525424	     -1.44233004	     -0.37866873	     95.58947256	      0.29996576	      0.77127332	      0.87901454	     -5.00819099	      1.42622176	     -2.85923674	      2.18643136	      0.03816043	     14.04060230	      8.03666424	      0.00000000	     -3.93021289	     -1.03011245	    -16.62254448	      6.45315023	      0.11262872	     17.51763318	     13.37433208	      0.00000000	     -0.22136020	     -0.53447232	     -0.82532761	     -0.41108802	     -0.71084818	     -0.87691059	     -0.36367266	     -1.29951599	     -0.87691059	     -0.25299257	     -1.29951599	     -0.72216166	     -0.20555508	     -1.08989595	     -0.67057868	     -0.12648522	     -0.82789762	     -0.61899571	     -1.58115374	     -6.04605773	     -4.59022457	      0.00000000	      0.00000000	     11.28637266	      6.57301681	     -8.27894171	     28.63632173	    -28.66440229	      6.62317003	    142.14829568	     89.13030724	     -5.00008708	      8.19943001	    -11.73138967	    -17.05164690	     26.25716550	     31.04990942	     87.23830508	    -14.95488730	      2.02820413
      2.93220339	     -1.36979341	     -0.39988814	     95.64575783	      0.29947751	      0.77179398	      0.87961977	     -4.95012968	      1.47393939	     -2.75207363	      2.20132822	      0.03842043	     13.82853564	      7.76950121	      0.00000000	     -3.84790136	     -1.08820925	    -16.60582793	      6.48061816	      0.11310812	     17.37330464	     13.36886766	      0.00000000	     -0.22585467	     -0.52943541	     -0.92160855	     -0.41943471	     -0.70414909	     -0.97920908	     -0.37105664	     -1.28726925	     -0.97920908	     -0.25812930	     -1.28726925	     -0.80640748	     -0.20972865	     -1.07962468	     -0.74880694	     -0.12905336	     -0.82009544	     -0.69120641	     -1.61325732	     -5.98907921	     -5.12571025	      0.00000000	      0.00000000	     11.01160498	      6.91510130	     -7.92857601	     27.91238062	    -28.92537181	      5.67356398	    142.43270513	     89.20931476	     -5.15369894	      5.01088932	    -11.37706672	    -17.36613495	     28.38904416	     30.54148679	     87.05747108	    -16.15471322	      1.41275090
      2.94915254	     -1.26000920	     -0.47093769	     95.70917577	      0.29917506	      0.77217928	      0.88030623	     -4.82445288	      1.56385499	     -2.90850092	      2.23527191	      0.03901285	     13.61366621	      7.79899520	      0.00000000	     -3.69925194	     -1.18799672	    -16.56766515	      6.50865803	      0.11359751	     17.26420245	     13.35186046	      0.00000000	     -0.22355014	     -0.52579453	     -1.03306205	     -0.41515496	     -0.69930673	     -1.09762843	     -0.36727052	     -1.27841683	     -1.09762843	     -0.25549545	     -1.27841683	     -0.90392929	     -0.20758866	     -1.07220021	     -0.83936292	     -0.12773655	     -0.81445573	     -0.77479654	     -1.59679626	     -5.94789291	     -5.74558120	      0.00000000	      0.00000000	     10.42347349	      7.41626604	     -7.33542463	     27.21719914	    -29.24324573	      4.76714473	    142.45208438	     89.26558001	     -5.28418368	      3.23672696	    -11.47542232	    -17.46821739	     28.71343896	     30.41277853	     87.16129693	    -16.97106269	      1.04412035
      2.96610169	     -1.28172172	     -0.43297203	     95.85407465	      0.29849688	      0.77257822	      0.88107179	     -4.81127391	      1.50719894	     -3.15140136	      2.31443493	      0.04039451	     13.51366400	      7.84944133	      0.00000000	     -3.64641107	     -1.12734911	    -16.01016885	      6.56855636	      0.11464294	     17.12893884	     12.74264028	      0.00000000	     -0.24450173	     -0.53464025	     -1.13808045	     -0.45406416	     -0.71107153	     -1.20921048	     -0.40169189	     -1.29992431	     -1.20921048	     -0.27944103	     -1.29992431	     -0.99582039	     -0.22704431	     -1.09023840	     -0.92469036	     -0.13970829	     -0.82815775	     -0.85356034	     -1.74645141	     -6.04795745	     -6.32966203	      0.00000000	      0.00000000	      9.71780448	      7.62246991	     -7.14881765	     26.68699205	    -29.61742934	      4.20085092	    142.17851755	     89.29117390	     -5.71095559	      2.22649859	    -11.61735367	    -17.64578973	     29.27917304	     30.48381362	     87.10265418	    -18.43729145	      0.23763457
      2.98305085	     -1.23189345	     -0.38855280	     96.07072179	      0.29807771	      0.77279551	      0.88196783	     -4.79258817	      1.55121634	     -3.62461139	      2.37238587	      0.04140594	     13.54426570	      8.18222710	      0.00000000	     -3.52747421	     -1.19224540	    -15.56519993	      6.74636424	      0.11774627	     17.12071744	     12.31911638	      0.00000000	     -0.27040452	     -0.54174627	     -1.21892434	     -0.50216823	     -0.72052254	     -1.29510711	     -0.44424759	     -1.31720189	     -1.29510711	     -0.30904533	     -1.31720189	     -1.06655879	     -0.25109764	     -1.10472900	     -0.99037602	     -0.15450914	     -0.83916498	     -0.91419325	     -1.93147245	     -6.12834220	     -6.77929148	      0.00000000	      0.00000000	      8.91974539	      7.83193746	     -7.21024308	     26.26257367	    -30.13023339	      4.03312501	    141.73575868	     89.30632194	     -6.46033418	      1.85838223	    -12.04682508	    -17.72190073	     28.66768566	     31.01289805	     87.18885555	    -20.24234806	     -0.28679976
      3.00000000	     -1.30774615	     -0.34146418	     96.12946535	      0.29812050	      0.77288469	      0.88273890	     -4.79598853	      1.46761277	     -3.80902567	      2.41745693	      0.04219258	     13.62307156	      8.39862822	      0.00000000	     -3.48278456	     -1.14986647	    -15.79432158	      6.86303831	      0.11978262	     17.12404274	     12.61101463	      0.00000000	     -0.29777296	     -0.56422621	     -1.22270246	     -0.55299417	     -0.75042086	     -1.29912136	     -0.48921120	     -1.37185961	     -1.29912136	     -0.34032472	     -1.37185961	     -1.06986465	     -0.27651197	     -1.15057009	     -0.99344575	     -0.17014747	     -0.87398640	     -0.91702684	     -2.12696250	     -6.38263975	     -6.80030426	      0.00000000	      0.00000000	      8.18612707	      8.06633724	     -7.38032681	     25.89329717	    -30.54738337	      4.15742973	    141.31097980	     89.30319941	     -7.04665503	      2.65707237	    -12.58087192	    -17.86397234	     27.33025714	     31.91851389	     87.32736813	    -21.27949920	     -0.49743512
